<svg width="111" height="131" viewBox="0 0 111 131" fill="none" xmlns="http://www.w3.org/2000/svg">
<g clip-path="url(#clip0_7014_15074)">
<path d="M87.9307 124.398C87.7249 121.408 87.4367 118.417 87.1897 115.427C87.1074 114.561 87.025 113.696 87.1897 112.869C87.3955 112.043 87.3955 111.256 87.3955 110.43C87.3132 103.977 87.519 97.5637 87.2309 91.1109C87.1074 88.1599 87.2309 85.1696 87.2309 82.2187V79.8972C87.1897 78.9529 86.7369 78.4808 85.79 78.3234C85.4607 78.284 85.0901 78.3234 84.7196 78.3234C84.555 78.3234 84.3903 78.3234 84.2256 78.284C83.9375 75.6085 83.5669 72.9329 83.4434 70.2181C83.3199 67.4245 82.9083 64.6702 82.7848 61.8766L82.5378 58.0207C82.2907 55.4632 81.9614 52.9057 81.8379 50.3482C81.7144 47.5153 81.3439 44.7217 81.1792 41.8887C81.0969 40.7084 81.0557 39.4886 80.9322 38.3082C80.6852 35.4753 80.397 32.6817 80.1912 29.8488L79.8207 25.4814C79.656 22.8845 79.3267 20.2877 79.1208 17.6908C78.915 15.0546 78.7915 12.3791 78.5033 9.74287C78.3386 8.36575 78.1328 6.87059 76.4449 6.2804C75.5392 5.80824 74.6336 5.92628 73.6867 6.12301C72.3693 6.39844 71.0931 6.7919 69.7346 6.94929C68.4584 7.10667 67.6762 7.8149 67.0999 8.75921C66.5647 9.66418 66.1942 10.6478 66.1942 11.7102V22.8058C65.5767 22.8058 64.918 22.8845 64.3005 22.8058C61.7069 22.373 59.031 22.373 56.3963 22.0976C54.9142 21.9402 53.4322 21.9009 51.9913 21.7435C49.1508 21.468 46.269 21.35 43.4285 20.9959C41.9053 20.7992 40.3821 20.9172 38.8589 20.6811C37.912 20.5237 37.0063 20.5237 36.0595 20.8385H35.5654C35.5654 19.8549 35.5654 18.8712 35.4831 17.8875C35.2361 14.8185 34.9068 11.7495 34.7833 8.68052C34.7009 6.87059 34.4951 5.10001 34.1657 3.32943C33.9599 2.26708 33.4247 1.28343 32.0662 1.16539C31.4309 0.928351 30.7255 0.928351 30.0901 1.16539C28.8963 1.5195 27.7024 1.91297 26.4674 2.14904C24.8207 2.42447 23.9973 3.44747 23.5033 4.78524C23.1328 5.7689 22.927 6.75255 22.927 7.8149V21.5861C22.927 22.0582 22.8035 22.5304 23.0916 22.9632V23.8288C22.7623 24.3403 22.927 24.9305 22.927 25.4814V50.6236C22.927 51.0564 22.8446 51.4892 23.0916 51.8827C23.0093 52.3549 23.0093 52.7877 23.0916 53.2598C22.8035 53.732 22.927 54.2828 22.927 54.755L22.927 79.6218C22.927 80.094 22.8446 80.5661 23.0505 80.9989C23.0505 80.9989 23.1328 80.9596 23.1328 80.9202C23.1328 80.9202 23.0505 80.9596 23.0505 80.9989V81.8645C22.8446 82.2187 22.8858 82.6121 22.8858 83.0056V105.039C22.8858 105.472 22.8035 105.905 23.0093 106.299V106.692C22.8035 107.085 22.8858 107.518 22.8858 107.951V124.909C22.8858 125.421 22.68 126.09 23.4622 126.326C24.0797 126.759 24.6972 126.601 25.3147 126.365C25.7675 126.365 26.0145 126.129 26.2204 125.814C26.8379 125.578 26.8379 125.067 26.9202 124.555C27.2496 122.667 27.0849 120.739 27.1261 118.811V114.719C27.1261 114.325 27.1261 113.932 27.7024 113.892C30.7077 114.483 33.6717 115.033 36.6358 115.624C37.665 115.82 37.6238 115.86 37.7062 116.883C37.912 119.873 38.0767 122.863 38.2825 125.854C38.3648 126.798 38.5295 127.703 38.8177 128.608C39.1059 129.552 39.6822 130.3 40.7114 130.615C41.1642 131.087 41.6994 130.89 42.2346 130.851C43.0991 130.733 43.305 130.457 43.1815 129.631C42.9345 128.018 43.0168 126.404 42.8521 124.791C42.5639 122.391 42.5639 119.952 42.3993 117.512C42.3581 116.883 42.6874 116.922 43.0991 116.922C43.6343 117.434 44.2518 117.552 44.9928 117.552C44.7458 117.355 44.5812 117.119 44.4165 116.883C44.2928 116.719 44.2085 116.531 44.1695 116.332C44.2518 116.529 44.3342 116.686 44.4165 116.883C44.54 117.119 44.7458 117.355 44.9928 117.552C45.1575 117.591 45.3222 117.709 45.4869 117.709C47.5864 117.552 49.686 117.355 51.7443 117.158C54.0909 116.922 56.4374 116.686 58.8252 116.489C61.0894 116.253 63.3536 116.056 65.6178 115.86C65.659 115.86 65.7413 115.82 65.7825 115.781C65.7413 115.781 65.659 115.82 65.6178 115.86C66.1942 115.978 66.0707 116.411 66.0707 116.804V120.778C66.0707 121.644 66.2765 121.84 67.1822 121.88C67.8821 121.88 68.6231 121.998 69.2818 121.604C69.8581 121.408 69.9816 120.935 70.1051 120.385C70.4345 119.086 70.311 117.748 70.311 116.411C70.311 115.742 70.4756 115.427 71.2578 115.348C73.6455 115.151 76.0333 114.876 78.4621 114.679C79.7795 114.561 81.0969 114.246 82.4554 114.404L82.5789 115.86V116.214L82.7024 117.119C82.4966 117.945 82.7024 118.732 82.7848 119.519C82.7848 120.817 82.9906 122.076 83.3611 123.335C83.8139 124.791 84.8431 125.657 86.4898 125.696C87.8484 125.657 87.8895 125.657 87.8072 124.398H87.9307ZM83.4434 114.128C83.6904 114.128 83.9786 114.128 84.1845 114.05C83.9375 114.128 83.6904 114.128 83.4434 114.128ZM85.0078 113.892C85.0078 113.892 84.7196 113.814 84.555 113.892C84.7196 113.853 84.8431 113.853 85.0078 113.892ZM67.9644 121.368C67.9644 121.368 68.0056 121.289 68.0467 121.25C68.0467 121.25 68.0056 121.329 67.9644 121.368ZM68.3761 120.778L68.1291 121.132C68.2114 121.014 68.3349 120.896 68.3761 120.778ZM66.0707 60.3815V76.4741C66.0707 77.1561 65.7276 77.4971 65.0415 77.4971C63.3536 77.4971 61.6246 77.5364 59.9367 77.5758C59.525 77.5758 59.1133 77.5365 58.7428 77.7332C52.7735 77.8512 46.8042 77.9299 40.8349 78.048C40.4232 78.048 40.0116 78.1266 39.641 78.166C39.641 76.3561 39.394 74.5855 39.2294 72.7756C38.9824 69.8246 38.9412 66.8736 38.5295 63.9226V63.2931C38.5295 60.8143 38.2413 58.3355 38.0355 55.8567C37.9532 55.1091 37.7062 54.3222 38.2825 53.6139C37.5827 53.1418 37.9943 52.4335 37.912 51.804C37.9532 52.4335 37.5415 53.1418 38.2825 53.6139C44.8693 53.7713 51.4562 53.8894 58.043 54.0467C60.3484 54.3222 62.6949 54.3222 65.0415 54.2435H65.6178C66.1942 54.3222 66.153 54.7156 66.153 55.1091V60.3815H66.0707ZM59.525 52.9844C59.525 52.9844 59.8544 53.1024 60.019 53.1418C59.8544 53.1418 59.6897 53.0631 59.525 52.9844ZM56.9315 51.2925C54.3379 51.0958 51.7032 51.3319 49.1096 51.1745C45.6515 50.9384 42.1934 51.0171 38.7354 50.9384C37.6238 50.9384 37.7062 50.8597 37.5827 49.8367C37.2533 46.689 37.1298 43.5413 36.8828 40.3542C36.7181 38.6624 36.5946 36.9311 36.5123 35.2392C36.4445 33.0968 36.2934 30.9575 36.0595 28.8258C35.936 27.8815 36.0183 26.9372 35.9771 25.9929C35.9771 25.5207 36.2241 25.324 36.7181 25.324C37.2121 25.324 37.7062 25.442 38.2002 25.324C42.5228 25.6388 46.8042 25.9142 51.1268 26.2289L64.424 27.1733C64.671 27.3306 64.918 27.37 65.2062 27.3306C65.8237 27.2913 66.1119 27.5274 66.0707 28.1569V51.4105C63.0243 51.4105 59.9779 51.4892 56.9315 51.2532V51.2925ZM26.5909 81.6678C26.5909 81.353 26.5909 81.0776 26.8379 80.8415C26.5497 81.0776 26.5497 81.353 26.5909 81.6678ZM32.766 42.0461C32.9719 44.8397 33.1366 47.6333 33.3424 50.3875C33.3836 50.9777 33.2189 51.2925 32.5602 51.3319C32.1074 51.3319 31.6545 51.4105 31.2017 51.4499C31.2017 51.5679 31.1605 51.686 31.0782 51.7647C31.1605 51.686 31.1605 51.5679 31.2017 51.4499C30.2136 51.4499 29.1845 51.2532 28.1964 51.686C27.8671 51.686 27.5789 51.686 27.2907 51.7647C27.2496 51.7647 27.2084 51.7253 27.1672 51.686C27.1672 50.8597 27.0849 50.0728 27.0849 49.2465V32.2489C27.0849 31.6981 27.0849 31.1472 26.8791 30.5964C26.7967 30.5177 26.7144 30.439 26.6732 30.3603C26.7144 30.439 26.8379 30.5177 26.8791 30.5964C27.0849 30.2423 27.0026 29.8488 27.0026 29.4947V25.6781C27.0026 25.2846 26.8791 24.8125 27.2907 24.4977C27.9494 24.4977 28.5669 24.5764 29.2256 24.6157C29.7608 24.8518 30.296 24.8518 30.8312 24.7731C31.037 24.7731 31.2017 24.7731 31.4075 24.8125C31.5722 25.3633 31.5722 25.9142 31.6133 26.465C31.9427 31.6587 32.3132 36.8131 32.6425 42.0068L32.766 42.0461ZM27.1261 77.1823V54.8337C27.1261 54.3222 26.8791 53.6926 27.6613 53.4172C26.6321 53.0631 26.4674 52.7877 26.9202 52.0794C26.4674 52.827 26.6321 53.0631 27.6613 53.4172C29.555 53.4172 31.4487 53.4959 33.3424 53.5352C33.5071 53.968 33.5482 54.4402 33.5894 54.9124L34.2069 65.4572C34.4539 69.2737 34.7421 73.051 34.9891 76.8676C34.9891 77.3397 35.0714 77.8119 34.9068 78.284C32.3132 78.284 29.7608 78.3234 27.1672 78.3627C27.1672 77.9693 27.0849 77.6151 27.0849 77.2217L27.1261 77.1823ZM71.0931 51.7647C70.5991 51.7647 70.3521 51.5679 70.3521 51.0958V26.9372C70.4345 26.8978 70.4345 26.8191 70.4756 26.7404C71.6695 26.5831 72.8222 26.3863 74.016 26.2683C74.5512 26.2289 75.1276 25.8355 75.6216 26.3863C75.4569 28.2356 75.8274 30.0455 75.9509 31.8948C76.1979 36.1049 76.6096 40.3542 76.9801 44.5643L77.5976 52.0007C75.4569 52.0794 73.3162 51.6466 71.1755 51.804L71.0931 51.7647ZM71.2166 24.8912C71.2166 24.8912 71.052 24.7731 70.9696 24.7338C71.052 24.7338 71.1343 24.8518 71.2166 24.8912ZM70.4345 77.7725C70.4345 77.7725 70.3933 77.5365 70.3933 77.3791V55.1484C70.3933 54.755 70.3933 54.3615 70.6815 54.0467C70.5168 54.0467 70.3521 54.0467 70.1875 54.0074C70.1875 53.85 70.1874 53.732 70.2286 53.6139C70.1874 53.732 70.1463 53.85 70.1875 54.0074C70.3521 54.0074 70.5168 54.0074 70.6815 54.0467C72.6163 53.968 74.5924 53.85 76.5273 53.8107C76.9389 53.8107 77.433 53.5746 77.7623 54.0074C77.6388 55.6993 77.9681 57.3518 78.0916 59.0044C78.2563 62.0734 78.5857 65.1424 78.8327 68.2507C79.0797 71.1624 79.2855 74.074 79.5737 76.9856C79.656 78.0873 79.6148 78.1266 78.421 78.0873C75.7863 78.0086 73.1104 77.8906 70.4756 77.7725H70.4345ZM76.4038 23.7895C76.4038 23.7895 76.1156 23.7108 75.9509 23.7108C76.1156 23.7108 76.2391 23.7895 76.4038 23.7895ZM72.6163 10.8839C73.3162 10.7265 73.6455 10.9233 73.8925 11.4741C74.1807 12.1036 74.3454 12.7725 74.4277 13.4414C74.7159 16.8252 74.9629 20.209 75.2511 23.5927C75.4157 23.5927 75.5804 23.5927 75.7039 23.6321C75.5392 23.6321 75.4157 23.5927 75.2511 23.5927C73.8514 23.7501 72.4928 23.2386 71.0931 23.3567C70.5168 23.396 70.311 23.0419 70.311 22.5304V15.9596C70.311 14.5431 70.311 13.1266 70.6815 11.7495C71.3401 11.4741 71.8753 11.0019 72.6163 10.8446V10.8839ZM27.0849 15.3694V9.70352C27.0849 9.03464 27.2084 8.4051 27.4142 7.8149C27.6201 7.3034 27.9083 6.90994 28.4023 6.63452C29.3903 6.04432 29.8431 6.20171 30.1725 7.3034C30.3783 7.93294 30.5018 8.56248 30.543 9.19202C30.6665 11.0019 30.7488 12.7725 30.8723 14.5825L31.2428 20.7205C31.284 21.6648 31.2428 21.6648 30.2548 21.8615C29.5138 22.0189 28.7728 22.1763 28.0318 22.2943C27.2084 22.4124 27.0849 22.2943 27.0849 21.5074V15.3694ZM42.2758 116.529C42.2758 116.529 42.5639 116.804 42.8933 116.804C42.5639 116.804 42.3581 116.686 42.2758 116.529ZM61.2541 91.6618C61.2541 91.6618 60.8424 91.5044 60.6366 91.5831C60.8424 91.5044 61.0482 91.5044 61.2541 91.6618ZM62.4068 93.3536V93.6291C62.3824 93.9717 62.2627 94.3019 62.06 94.5855C61.8574 94.8691 61.5791 95.0959 61.2541 95.2423C60.9659 95.3603 60.6366 95.439 60.3895 95.1242C59.6897 95.2423 59.6485 94.6127 59.4427 94.2586C59.3604 94.0619 59.3192 93.9045 59.278 93.7471C59.1545 92.9995 59.525 92.4093 60.3895 91.7798H61.4599L61.5011 91.8191C62.1598 92.0552 62.3656 92.5274 62.4068 93.0782V93.3143V93.3536ZM65.7825 54.2435C66.153 54.0861 66.5235 53.9287 66.3589 53.3385C66.5235 53.8894 66.153 54.0861 65.7825 54.2435ZM71.9577 94.6521C71.1343 94.6521 70.4345 93.9438 70.5168 92.9602C70.5991 91.8191 70.9696 91.0716 71.9988 91.0322C72.8222 91.0322 73.4809 91.7404 73.4809 92.6848C73.4809 93.7471 72.8222 94.6127 71.9577 94.6521Z" fill="#469E71"/>
</g>
<defs>
<clipPath id="clip0_7014_15074">
<rect width="110" height="130" fill="white" transform="translate(0.408203 0.929321)"/>
</clipPath>
</defs>
</svg>
