<svg width="134" height="30" viewBox="0 0 134 30" fill="none" xmlns="http://www.w3.org/2000/svg">
<path d="M56.4975 29.1598C62.5129 29.1598 67.0446 24.5968 67.0446 18.54C67.0446 12.4831 62.5129 7.92007 56.4975 7.92007C50.4822 7.92007 45.9505 12.4831 45.9505 18.54C45.9505 24.5968 50.4822 29.1598 56.4975 29.1598ZM56.4975 25.6199C52.4744 25.6199 49.4661 22.5909 49.4661 18.54C49.4661 14.4891 52.4744 11.46 56.4975 11.46C60.5206 11.46 63.5289 14.4891 63.5289 18.54C63.5289 22.5909 60.5206 25.6199 56.4975 25.6199ZM80.7171 29.1598C86.7324 29.1598 91.2642 24.5968 91.2642 18.54C91.2642 12.4831 86.7324 7.92007 80.7171 7.92007C74.7018 7.92007 70.17 12.4831 70.17 18.54C70.17 24.5968 74.7018 29.1598 80.7171 29.1598ZM80.7171 25.6199C76.694 25.6199 73.6857 22.5909 73.6857 18.54C73.6857 14.4891 76.694 11.46 80.7171 11.46C84.7402 11.46 87.7485 14.4891 87.7485 18.54C87.7485 22.5909 84.7402 25.6199 80.7171 25.6199ZM124.742 15.354L133.375 27.6648C133.648 28.0577 133.454 28.3728 132.985 28.3728H130.29C129.704 28.3728 129.43 28.2159 129.118 27.7439L120.836 15.8649C120.211 14.9599 119.391 15.1959 119.391 16.3369V27.5857C119.391 28.0967 119.118 28.3728 118.609 28.3728H116.656C116.148 28.3728 115.874 28.0979 115.874 27.5857V1.6272C115.874 1.11627 116.147 0.840149 116.656 0.840149H118.609C119.117 0.840149 119.391 1.11509 119.391 1.6272V9.80805C119.391 10.634 119.938 11.027 120.719 10.791L132.555 7.36902C132.906 7.25102 133.179 7.40796 133.179 7.80207V8.82513C133.179 9.45406 132.945 9.76911 132.359 10.0441L125.445 13.112C124.469 13.505 124.194 14.41 124.742 15.354ZM1.02815 28.3728H3.80203C4.42665 28.3728 4.89541 28.1368 5.2083 27.5468L17.3175 6.15009C17.982 4.9701 18.8023 5.0881 18.8023 6.62209V27.5869C18.8023 28.0979 19.0754 28.374 19.584 28.374H23.5684C24.193 28.374 24.6618 28.138 24.9747 27.548L37.1237 6.03327C37.7097 5.01023 38.53 5.20728 38.53 6.38727V27.5881C38.53 28.099 38.8031 28.3752 39.3117 28.3752H41.6555C42.1629 28.3752 42.4371 28.1002 42.4371 27.5881V1.6272C42.4371 1.11627 42.1641 0.840149 41.6555 0.840149H36.4991C35.8745 0.840149 35.4057 1.07615 35.0928 1.66614L24.1157 21.097C23.5297 22.12 22.7094 21.884 22.7094 20.7041V1.6272C22.7094 1.11627 22.4363 0.840149 21.9277 0.840149H1.30237C0.793771 0.840149 0.520718 1.11509 0.520718 1.6272V2.72813C0.520718 3.27918 0.79377 3.63318 1.34105 3.71106L10.6775 5.28398C12.1225 5.51998 12.5913 6.46397 11.8881 7.72301L0.599236 27.6648C0.364857 28.0979 0.560562 28.3728 1.02932 28.3728H1.02815ZM94.7799 27.5869C94.7799 28.0979 95.0529 28.374 95.5615 28.374H97.5151C98.0225 28.374 98.2967 28.099 98.2967 27.5869V16.9281C98.2967 13.6241 100.133 11.8152 103.375 11.8152C106.616 11.8152 108.452 13.6241 108.452 16.9281V27.5869C108.452 28.0979 108.725 28.374 109.234 28.374H111.188C111.695 28.374 111.969 28.099 111.969 27.5869V16.377C111.969 11.46 108.727 8.27407 103.687 8.27407C102.164 8.27407 100.679 8.58913 99.5073 9.17912C99.2342 9.29712 98.9999 9.33606 98.7256 9.25818L95.6787 8.27525C95.1713 8.11831 94.7799 8.39325 94.7799 8.9443V27.5881V27.5869Z" fill="white"/>
</svg>
