<svg width="48" height="48" viewBox="0 0 48 48" fill="none" xmlns="http://www.w3.org/2000/svg">
<path fill-rule="evenodd" clip-rule="evenodd" d="M24.0008 34.3777C22.0314 35.9083 19.6662 36.8601 17.1755 37.1244C14.6848 37.3887 12.1691 36.9549 9.91597 35.8724C7.66285 34.7899 5.76322 33.1024 4.4342 31.003C3.10518 28.9035 2.40039 26.4766 2.40039 23.9998C2.40039 21.523 3.10518 19.0961 4.4342 16.9967C5.76322 14.8972 7.66285 13.2097 9.91597 12.1272C12.1691 11.0448 14.6848 10.6109 17.1755 10.8752C19.6661 11.1395 22.0313 12.0913 24.0008 13.6218C25.9701 12.0913 28.3353 11.1395 30.8259 10.8752C33.3166 10.6109 35.8322 11.0448 38.0853 12.1273C40.3383 13.2098 42.2379 14.8972 43.5668 16.9967C44.8958 19.0962 45.6005 21.523 45.6004 23.9998C45.6005 26.4765 44.8958 28.9034 43.5668 31.0028C42.2379 33.1023 40.3383 34.7898 38.0853 35.8723C35.8322 36.9548 33.3166 37.3886 30.8259 37.1243C28.3353 36.86 25.9702 35.9082 24.0008 34.3777ZM18.9019 23.9998C18.9 22.0009 19.3582 20.0277 20.2416 18.2298C21.125 16.4319 22.4105 14.8562 24.0008 13.6221C25.5897 14.8574 26.8742 16.4333 27.7574 18.231C28.6407 20.0287 29.0996 22.0012 29.0996 23.9998C29.0996 25.9984 28.6407 27.9709 27.7574 29.7686C26.8741 31.5662 25.5896 33.1421 24.0007 34.3775C22.4104 33.1434 21.125 31.5677 20.2416 29.7698C19.3582 27.9719 18.9 25.9987 18.9019 23.9998ZM26.1849 34.2376C27.645 35.0833 29.2752 35.6173 30.97 35.7971C33.2088 36.0347 35.47 35.6447 37.4952 34.6717C39.5205 33.6987 41.2279 32.1819 42.4225 30.2947C43.617 28.4075 44.2505 26.2261 44.2504 23.9998C44.2505 21.7735 43.617 19.592 42.4225 17.7048C41.2279 15.8177 39.5205 14.3009 37.4952 13.3278C35.47 12.3548 33.2088 11.9648 30.97 12.2024C29.2752 12.3822 27.645 12.9162 26.1849 13.762C27.3207 14.894 28.2634 16.2061 28.9717 17.6477C29.9443 19.6271 30.4496 21.7991 30.4496 23.9998C30.4496 26.2004 29.9443 28.3724 28.9717 30.3518C28.2634 31.7934 27.3207 33.1055 26.1849 34.2376Z" fill="#373737"/>
<path d="M44.3272 31.7539V32.1788H44.2325V31.7539H44.0591V31.6673H44.5005V31.7539H44.3272Z" fill="#373737"/>
<path d="M45.184 31.6664V32.1788H45.0886V31.7915L44.9426 32.1255H44.8436L44.6977 31.7923V32.1788H44.6021V31.6664H44.7375L44.8931 32.0189L45.0487 31.6664H45.184Z" fill="#373737"/>
</svg>
